<svg xmlns="http://www.w3.org/2000/svg" viewBox="0 0 32 32" fill="none">
  <rect width="32" height="32" rx="8" fill="#4F46E5"/>
  <path d="M8 12a2 2 0 0 1 2-2h12a2 2 0 0 1 2 2v10a2 2 0 0 1-2 2H10a2 2 0 0 1-2-2V12Z" fill="white" fill-opacity="0.2" stroke="white" stroke-width="1.5"/>
  <path d="M13 10V9a1 1 0 0 1 1-1h4a1 1 0 0 1 1 1v1" stroke="white" stroke-width="1.5" stroke-linecap="round"/>
  <path d="M8 16h16" stroke="white" stroke-width="1.5" stroke-linecap="round"/>
  <circle cx="16" cy="16" r="1.5" fill="white"/>
</svg>
